<svg id="Camada_2" data-name="Camada 2" xmlns="http://www.w3.org/2000/svg" viewBox="0 0 807.15 262.56"><defs><style>.cls-2{fill:#744fce}</style></defs><g id="Camada_4" data-name="Camada 4"><path class="cls-2" d="M544.58 198.26c-2.93-1.23-6.35-1.86-10.16-1.86-7.93 0-14.48 2.86-19.47 8.5-4.92 5.57-7.42 13.84-7.42 24.58s2.51 19.11 7.46 24.64c5.01 5.6 11.53 8.44 19.37 8.44 3.85 0 7.28-.61 10.21-1.82 3.06-1.26 5.51-3.28 7.29-6 1.77-2.71 2.67-5.46 2.67-8.19v-2.35h-10.86v2.35c0 1.53-.64 2.93-1.95 4.25-1.29 1.3-3.69 1.96-7.12 1.96-5.13 0-8.84-2-11.35-6.12-2.67-4.37-4.02-10.15-4.02-17.15s1.35-12.67 4.02-17.07c2.51-4.14 6.24-6.15 11.41-6.15 2.02 0 3.75.29 5.13.86 1.26.52 2.2 1.26 2.88 2.27.68 1.01 1 2 1 3.03v2.35h10.86v-2.35c0-2.6-.89-5.31-2.66-8.06-1.78-2.76-4.23-4.81-7.29-6.1ZM578.34 213.47c-5.9 0-11.01 2.08-15.18 6.19-4.18 4.12-6.3 10.18-6.3 18.03s2.12 14.03 6.3 18.12c4.17 4.08 9.28 6.15 15.18 6.15s11.01-2.07 15.18-6.15c4.18-4.09 6.3-10.19 6.3-18.12s-2.12-13.91-6.3-18.03c-4.17-4.1-9.28-6.18-15.18-6.18Zm7.35 34.96c-1.86 2.5-4.27 3.72-7.35 3.72s-5.49-1.22-7.35-3.72c-1.97-2.65-2.97-6.27-2.97-10.75s1-8.04 2.97-10.69c1.86-2.5 4.26-3.72 7.35-3.72s5.49 1.22 7.35 3.72c1.97 2.66 2.97 6.25 2.97 10.69s-1 8.1-2.97 10.75ZM634.99 216.77c-2.32-1.23-4.98-1.85-7.91-1.85-2.06 0-3.97.33-5.67.99-1.68.65-3.3 1.61-4.83 2.85-.34.28-.67.58-1.01.91v-3.59H604.7v46.48h10.87v-22.9c0-3.7.49-6.52 1.45-8.41.95-1.86 2.2-3.33 3.73-4.35 2.69-1.8 5.73-2.03 8.24-.46 1.02.64 1.69 1.5 2.04 2.63.3.96.65 3.03.65 7.47v26.02h10.87v-29.01c0-5.07-.64-8.72-1.97-11.17-1.34-2.46-3.22-4.35-5.6-5.61ZM679.15 216.77c-2.32-1.23-4.98-1.85-7.91-1.85-2.06 0-3.97.33-5.67.99-1.68.65-3.3 1.61-4.83 2.85-.34.28-.67.58-1.01.91v-3.59h-10.87v46.48h10.87v-22.9c0-3.7.49-6.52 1.45-8.41.95-1.86 2.2-3.33 3.73-4.35 2.69-1.8 5.73-2.03 8.24-.46 1.02.64 1.69 1.5 2.04 2.63.3.96.65 3.03.65 7.47v26.02h10.87v-29.01c0-5.07-.64-8.72-1.97-11.17-1.34-2.46-3.22-4.35-5.6-5.61ZM721.88 215.77c-2.82-1.53-6-2.3-9.45-2.3-6.29 0-11.5 2.39-15.49 7.11-3.9 4.62-5.88 10.48-5.88 17.4s1.87 12.53 5.56 17.02c3.79 4.61 9.2 6.95 16.1 6.95 3.33 0 6.36-.55 8.99-1.64 2.72-1.13 4.94-2.83 6.6-5.05 1.7-2.29 2.56-4.61 2.56-6.9v-2.41h-10.81v2.41c0 .31 0 1.27-1.41 2.46-1.02.86-2.86 1.32-5.34 1.32-3.64 0-6.39-1.19-8.39-3.64-1.75-2.15-2.75-4.75-3.03-7.93h29.28v-4.29c0-5.63-.8-9.94-2.44-13.19-1.67-3.29-3.97-5.75-6.86-7.32Zm-10.22 7.5c1.83 0 3.43.37 4.75 1.09 1.28.7 2.26 1.77 3.01 3.28.6 1.21.98 2.44 1.12 3.69h-17.73c.69-2.27 1.74-4.09 3.15-5.45 1.81-1.75 3.67-2.6 5.69-2.6ZM764.6 215.16c-2.51-1.12-5.52-1.69-8.96-1.69-6.69 0-11.94 2.23-15.61 6.64-3.58 4.29-5.39 10.2-5.39 17.58s1.81 13.4 5.4 17.67c3.67 4.38 8.92 6.6 15.61 6.6 3.44 0 6.45-.57 8.96-1.69 2.57-1.15 4.68-2.85 6.27-5.05 1.63-2.26 2.46-4.56 2.46-6.84v-2.41h-10.87v2.41c0 .6-.14 1.51-1.35 2.52-.98.83-2.74 1.26-5.11 1.26-2.88 0-5.24-1.06-7.2-3.23-1.99-2.2-2.99-5.98-2.99-11.24s1.01-8.97 2.99-11.18c1.96-2.17 4.32-3.23 7.2-3.23 2.4 0 4.14.44 5.18 1.3 1.21 1.01 1.31 1.84 1.28 2.49v2.41h10.87v-2.41c0-2.59-.84-4.98-2.5-7.11-1.58-2.03-3.67-3.64-6.22-4.78ZM804.57 250.97c-3.16.98-4.75 1.19-5.53 1.19-1.35 0-2.49-.26-3.39-.78-.81-.46-1.4-1.18-1.81-2.2-.33-.82-.72-2.7-.72-7.01v-17.69h12.07v-9.86h-12.07v-9.96h-10.86v9.96h-7.13v9.86h7.13v19.7c0 4.75.6 8.19 1.83 10.52 1.26 2.38 3.13 4.22 5.55 5.46 2.33 1.19 4.98 1.8 7.86 1.8 1.96 0 4.62-.42 8.14-1.27l1.52-.37v-10.15l-2.57.8Z"/><g id="Grupo_2157" data-name="Grupo 2157"><path d="M406.86 0h-60.34l-49.08 77.83L251.35 0h-62.74l.11.18h-47.98v149.91c0 33.58-3.38 44.17-4.83 47.16-2.55 5.5-7.01 9.88-12.55 12.34a56.043 56.043 0 0 1-23.37 4.62 65.52 65.52 0 0 1-25.54-4.75 27.903 27.903 0 0 1-14.09-11.58c-1.43-2.46-4.75-11.02-4.75-37.27V.18H0v164.48c0 28.15 3.98 48.06 12.17 60.89a71.49 71.49 0 0 0 37.41 28.53 148.15 148.15 0 0 0 50.16 8.25c17.52.54 34.91-3.19 50.67-10.87a79.285 79.285 0 0 0 32.33-30.55c7.51-12.95 11.17-33.54 11.17-62.94V8.96l71.11 120.28-83.12 133.28h60.76l51.99-83.83 49.66 83.83h62.23L326.8 127.17 406.86 0Z" style="fill:#fff" id="Grupo_2146" data-name="Grupo 2146"/></g><g id="Camada_2-2" data-name="Camada 2"><path class="cls-2" d="M424.02 196.73h65.29v65.74h-65.29z" id="folha-5"/></g></g></svg>