<svg id="Camada_2" data-name="Camada 2" xmlns="http://www.w3.org/2000/svg" viewBox="0 0 893.03 262.52"><defs><style>.cls-2{fill:#ff792e}</style></defs><g id="Camada_4" data-name="Camada 4"><g id="Grupo_2157" data-name="Grupo 2157"><path d="M406.86 0h-60.34l-49.08 77.83L251.35 0h-62.74l.11.18h-47.98v149.91c0 33.58-3.38 44.17-4.83 47.16-2.55 5.5-7.01 9.88-12.55 12.34a56.043 56.043 0 0 1-23.37 4.62 65.52 65.52 0 0 1-25.54-4.75 27.903 27.903 0 0 1-14.09-11.58c-1.43-2.46-4.75-11.02-4.75-37.27V.18H0v164.48c0 28.15 3.98 48.06 12.17 60.89a71.49 71.49 0 0 0 37.41 28.53 148.15 148.15 0 0 0 50.16 8.25c17.52.54 34.91-3.19 50.67-10.87a79.285 79.285 0 0 0 32.33-30.55c7.51-12.95 11.17-33.54 11.17-62.94V8.96l71.11 120.28-83.12 133.28h60.76l51.99-83.83 49.66 83.83h62.23L326.8 127.17 406.86 0Z" style="fill:#fff" id="Grupo_2146" data-name="Grupo 2146"/></g><g id="Camada_2-2" data-name="Camada 2"><path class="cls-2" d="M424.02 196.73h65.29v65.74h-65.29z" id="folha-5"/></g><path class="cls-2" d="M545.46 245.44h6.92v.36c0 2.31-.78 4.63-2.35 6.97-1.58 2.35-3.71 4.07-6.41 5.15-2.71 1.09-5.87 1.64-9.48 1.64-7.31 0-13.3-2.55-17.94-7.63-4.65-5.09-6.98-12.71-6.98-22.89s2.32-17.7 6.95-22.83c4.63-5.12 10.64-7.69 18.04-7.69 3.57 0 6.71.56 9.42 1.67 2.7 1.11 4.83 2.86 6.41 5.25 1.57 2.39 2.35 4.67 2.35 6.85v.36h-6.92v-.36c0-1.39-.45-2.74-1.34-4.05-.9-1.31-2.16-2.29-3.79-2.95-1.63-.66-3.6-.98-5.9-.98-5.88 0-10.26 2.32-13.14 6.97-2.89 4.65-4.33 10.58-4.33 17.76s1.44 13.23 4.33 17.86c2.88 4.63 7.24 6.95 13.08 6.95 4.01 0 6.86-.83 8.55-2.5 1.69-1.67 2.53-3.52 2.53-5.54v-.36Z"/><path class="cls-2" d="M534.13 261.38c-7.8 0-14.29-2.76-19.27-8.22-4.94-5.41-7.45-13.52-7.45-24.11s2.49-18.58 7.41-24.04c4.96-5.5 11.48-8.28 19.37-8.28 3.79 0 7.19.61 10.1 1.8 3.03 1.24 5.46 3.24 7.23 5.92 1.76 2.68 2.65 5.32 2.65 7.85v2.16h-10.52v-2.16c0-1.03-.34-2.02-1.03-3.04-.69-1.01-1.67-1.76-2.97-2.29-1.41-.56-3.17-.85-5.23-.85-5.26 0-9.06 2-11.61 6.12-2.69 4.33-4.06 9.99-4.06 16.81s1.37 12.59 4.06 16.91c2.55 4.1 6.33 6.1 11.56 6.1 3.5 0 5.95-.67 7.29-1.99 1.34-1.33 2-2.73 2-4.26v-2.16h10.52v2.16c0 2.66-.9 5.34-2.66 7.97-1.77 2.65-4.21 4.6-7.23 5.82-2.92 1.18-6.34 1.78-10.16 1.78Zm.06-61.05c-6.92 0-12.39 2.32-16.7 7.1-4.3 4.77-6.48 12.05-6.48 21.63s2.19 16.95 6.51 21.68c4.33 4.74 9.77 7.05 16.61 7.05 3.35 0 6.32-.51 8.81-1.52 2.38-.96 4.21-2.43 5.59-4.49 1.03-1.53 1.67-3.05 1.92-4.53h-3.3c-.33 1.95-1.31 3.76-2.95 5.38-2.07 2.04-5.28 3.02-9.82 3.02-6.48 0-11.4-2.62-14.61-7.79-3.05-4.89-4.6-11.22-4.6-18.81s1.55-13.81 4.6-18.71c3.22-5.19 8.15-7.82 14.67-7.82 2.52 0 4.73.37 6.57 1.11 1.97.79 3.51 2 4.61 3.61.8 1.17 1.31 2.38 1.53 3.63h3.3c-.26-1.4-.91-2.88-1.92-4.42-1.39-2.1-3.22-3.59-5.59-4.57-2.48-1.02-5.42-1.54-8.73-1.54ZM578.24 258.97c-5.4 0-10.01-1.82-13.83-5.48-3.81-3.66-5.72-9.12-5.72-16.4s1.91-12.63 5.72-16.3c3.82-3.68 8.43-5.52 13.83-5.52s10.01 1.84 13.83 5.52c3.81 3.67 5.72 9.11 5.72 16.3s-1.91 12.74-5.72 16.4c-3.82 3.66-8.43 5.48-13.83 5.48Zm0-5.72c3.73 0 6.72-1.48 8.97-4.44 2.24-2.96 3.37-6.87 3.37-11.72s-1.12-8.69-3.37-11.65c-2.25-2.96-5.24-4.44-8.97-4.44s-6.72 1.48-8.97 4.44c-2.24 2.96-3.37 6.85-3.37 11.65s1.12 8.76 3.37 11.72c2.25 2.96 5.24 4.44 8.97 4.44Z"/><path class="cls-2" d="M578.25 260.78c-5.86 0-10.94-2.01-15.08-5.98-4.17-4-6.28-9.95-6.28-17.7s2.11-13.59 6.27-17.6c4.16-4 9.23-6.02 15.09-6.02s10.93 2.02 15.08 6.02c4.16 4.01 6.27 9.93 6.27 17.6s-2.11 13.7-6.27 17.7c-4.15 3.97-9.22 5.98-15.08 5.98Zm0-43.7c-4.96 0-9.08 1.64-12.59 5.02-3.43 3.3-5.17 8.35-5.17 15s1.74 11.81 5.17 15.1c3.5 3.35 7.62 4.98 12.59 4.98s9.09-1.63 12.59-4.98c3.43-3.29 5.17-8.37 5.17-15.1s-1.74-11.7-5.17-15c-3.51-3.38-7.62-5.02-12.58-5.02Zm0 37.97c-4.31 0-7.81-1.73-10.41-5.15-2.48-3.27-3.74-7.58-3.74-12.81s1.26-9.47 3.73-12.74c2.6-3.42 6.1-5.16 10.41-5.16s7.81 1.73 10.41 5.15c2.48 3.27 3.74 7.56 3.74 12.74s-1.26 9.53-3.73 12.81c-2.6 3.42-6.1 5.15-10.41 5.15Zm0-32.25c-3.17 0-5.63 1.22-7.54 3.74-1.99 2.62-3 6.18-3 10.56s1.01 8 3.01 10.63c1.9 2.5 4.37 3.72 7.54 3.72s5.63-1.22 7.54-3.73c1.99-2.63 3-6.21 3-10.63s-1.01-7.94-3.01-10.56c-1.91-2.51-4.37-3.73-7.54-3.73ZM613.6 257.84h-6.92v-41.43h6.92v7.51c1.43-2.5 2.78-4.3 4.05-5.4 1.27-1.09 2.66-1.91 4.18-2.44 1.51-.54 3.1-.81 4.77-.81s3.35.27 4.92.81c1.57.53 2.92 1.33 4.05 2.38 1.13 1.06 2.26 2.87 3.37 5.46 1.39-2.42 2.78-4.19 4.17-5.31 1.39-1.11 2.8-1.95 4.23-2.5 1.43-.56 2.96-.83 4.59-.83 2.35 0 4.47.55 6.38 1.64 1.91 1.09 3.38 2.65 4.41 4.68 1.03 2.03 1.55 5.48 1.55 10.37v25.87h-6.92v-23.01c0-4.89-.3-7.98-.9-9.27-.59-1.29-1.4-2.27-2.41-2.95-1.01-.68-2.26-1.01-3.73-1.01-2.06 0-3.96.64-5.69 1.9-1.73 1.27-3.11 2.99-4.14 5.16-1.04 2.16-1.55 5.17-1.55 9.03v20.15h-6.92v-23.01c0-4.89-.26-7.98-.77-9.27-.52-1.29-1.37-2.27-2.53-2.95a7.313 7.313 0 0 0-3.73-1.01c-1.91 0-3.77.66-5.58 1.97s-3.23 3.06-4.26 5.25c-1.03 2.18-1.55 5.15-1.55 8.88v20.15Z"/><path class="cls-2" d="M666.07 259.64h-10.52v-24.81c0-6.27-.51-8.04-.73-8.52-.46-1-1.04-1.71-1.77-2.2-.72-.48-1.61-.71-2.73-.71-1.69 0-3.2.51-4.63 1.55-1.5 1.1-2.67 2.57-3.58 4.48-.91 1.91-1.38 4.68-1.38 8.26v21.95h-10.52v-24.81c0-6.08-.4-8-.64-8.61-.37-.91-.94-1.58-1.76-2.05-2.28-1.32-4.86-.95-7.34.85-1.55 1.13-2.8 2.66-3.69 4.56-.91 1.93-1.37 4.66-1.37 8.11v21.95h-10.52v-45.03h10.52v3.6c.36-.39.72-.74 1.07-1.05 1.45-1.24 3.05-2.18 4.76-2.78 3.41-1.22 7.38-1.2 10.86 0 1.79.6 3.38 1.53 4.7 2.76.81.76 1.59 1.79 2.35 3.12.93-1.27 1.87-2.28 2.83-3.06 1.56-1.24 3.14-2.17 4.71-2.78 3.96-1.55 8.83-1.19 12.51.93 2.2 1.25 3.93 3.08 5.12 5.42 1.17 2.31 1.74 5.97 1.74 11.19v27.67Zm-6.92-3.6h3.32v-24.07c0-5.7-.74-8.34-1.35-9.56-.88-1.73-2.09-3.01-3.7-3.93-1.65-.95-3.44-1.41-5.49-1.41-1.4 0-2.72.24-3.93.71-1.24.48-2.5 1.23-3.77 2.23-1.2.97-2.46 2.58-3.73 4.8l-1.79 3.12-1.42-3.3c-1.25-2.91-2.29-4.24-2.94-4.85a9.372 9.372 0 0 0-3.4-1.99c-2.73-.94-5.84-.96-8.5 0-1.3.45-2.51 1.16-3.61 2.11-1.11.96-2.34 2.62-3.66 4.92l-3.36 5.89v-12.49h-3.32v37.83h3.32V237.7c0-4.05.56-7.21 1.72-9.65 1.16-2.46 2.79-4.45 4.84-5.94 3.61-2.62 7.79-3.05 11.26-1.05 1.52.88 2.63 2.17 3.3 3.83.39.98.9 3.07.9 9.95v21.21h3.32V237.7c0-4.18.56-7.39 1.73-9.81 1.16-2.43 2.74-4.39 4.7-5.83 2.04-1.5 4.31-2.25 6.76-2.25 1.83 0 3.43.44 4.73 1.32 1.29.85 2.31 2.1 3.04 3.69.49 1.06 1.06 3.17 1.06 10.03v21.21ZM681.5 257.84h-6.92v-41.43h6.92v7.51c1.43-2.5 2.78-4.3 4.05-5.4 1.27-1.09 2.66-1.91 4.18-2.44 1.51-.54 3.1-.81 4.77-.81s3.35.27 4.92.81c1.57.53 2.92 1.33 4.05 2.38 1.13 1.06 2.26 2.87 3.37 5.46 1.39-2.42 2.78-4.19 4.17-5.31 1.39-1.11 2.8-1.95 4.23-2.5 1.43-.56 2.96-.83 4.59-.83 2.35 0 4.47.55 6.38 1.64 1.91 1.09 3.38 2.65 4.41 4.68 1.03 2.03 1.55 5.48 1.55 10.37v25.87h-6.92v-23.01c0-4.89-.3-7.98-.9-9.27-.59-1.29-1.4-2.27-2.41-2.95-1.01-.68-2.26-1.01-3.73-1.01-2.06 0-3.96.64-5.69 1.9-1.73 1.27-3.11 2.99-4.14 5.16-1.04 2.16-1.55 5.17-1.55 9.03v20.15h-6.92v-23.01c0-4.89-.26-7.98-.77-9.27-.52-1.29-1.37-2.27-2.53-2.95a7.313 7.313 0 0 0-3.73-1.01c-1.91 0-3.77.66-5.58 1.97s-3.23 3.06-4.26 5.25c-1.03 2.18-1.55 5.15-1.55 8.88v20.15Z"/><path class="cls-2" d="M733.97 259.64h-10.52v-24.81c0-6.26-.51-8.04-.73-8.52-.46-.99-1.04-1.71-1.77-2.2-.72-.48-1.61-.71-2.73-.71-1.69 0-3.2.51-4.63 1.55-1.5 1.1-2.67 2.57-3.58 4.48-.91 1.9-1.38 4.68-1.38 8.26v21.95h-10.52v-24.81c0-6.3-.45-8.12-.65-8.61-.36-.9-.94-1.58-1.76-2.05-2.27-1.32-4.86-.95-7.34.85-1.56 1.13-2.8 2.66-3.69 4.56-.91 1.92-1.37 4.66-1.37 8.12v21.95h-10.52v-45.03h10.52v3.6c.36-.39.72-.74 1.07-1.05 1.44-1.24 3.04-2.18 4.76-2.78 3.42-1.22 7.38-1.2 10.86 0 1.79.6 3.38 1.53 4.7 2.76.81.76 1.59 1.79 2.35 3.12.93-1.27 1.86-2.28 2.83-3.06 1.56-1.24 3.14-2.17 4.71-2.78 3.96-1.55 8.83-1.19 12.51.93 2.2 1.26 3.93 3.08 5.12 5.42 1.18 2.31 1.75 5.97 1.75 11.19v27.67Zm-6.92-3.6h3.32v-24.07c0-5.7-.74-8.34-1.36-9.56-.88-1.73-2.09-3.01-3.7-3.93-2.75-1.58-6.46-1.85-9.42-.69-1.24.48-2.5 1.23-3.77 2.23-1.2.97-2.46 2.58-3.73 4.79l-1.79 3.12-1.43-3.3c-1.26-2.91-2.29-4.25-2.94-4.85-.95-.88-2.09-1.55-3.4-1.99-2.73-.94-5.83-.96-8.51 0-1.3.46-2.51 1.16-3.6 2.11-1.11.96-2.35 2.62-3.66 4.92l-3.36 5.9v-12.51h-3.32v37.83h3.32v-18.35c0-4.06.56-7.21 1.72-9.66s2.79-4.45 4.84-5.93c3.61-2.62 7.81-3.05 11.26-1.05 1.53.88 2.64 2.17 3.3 3.83.39.98.9 3.07.9 9.94v21.21h3.32v-18.35c0-4.18.56-7.39 1.73-9.81 1.15-2.42 2.73-4.39 4.7-5.83 2.04-1.5 4.31-2.25 6.76-2.25 1.83 0 3.43.44 4.73 1.32 1.29.85 2.31 2.1 3.05 3.69.45.99 1.06 3.1 1.06 10.03v21.21ZM769.61 247.18h6.85v.41c0 1.83-.72 3.7-2.18 5.61-1.45 1.9-3.37 3.34-5.78 4.32-2.4.97-5.15 1.46-8.26 1.46-6.32 0-11.19-2.03-14.61-6.11-3.42-4.07-5.13-9.23-5.13-15.47s1.81-11.64 5.43-15.83c3.62-4.19 8.29-6.29 14.01-6.29 3.14 0 5.98.68 8.52 2.03 2.54 1.35 4.56 3.47 6.05 6.35 1.49 2.89 2.24 6.91 2.24 12.08V238H747.3c0 4.45 1.19 8.11 3.58 10.97 2.38 2.86 5.7 4.29 9.95 4.29 3.02 0 5.24-.58 6.65-1.76 1.41-1.17 2.11-2.47 2.11-3.91v-.41Zm-21.82-14.37h22.36v-.83c0-1.91-.47-3.78-1.4-5.61-.93-1.82-2.21-3.18-3.84-4.05-1.63-.87-3.54-1.31-5.72-1.31-2.54 0-4.91 1.04-7.09 3.1-2.19 2.06-3.62 4.97-4.3 8.7Z"/><path class="cls-2" d="M760.25 260.78c-6.85 0-12.23-2.27-15.98-6.75-3.68-4.39-5.55-9.99-5.55-16.63s1.97-12.5 5.86-17c3.96-4.59 9.13-6.92 15.38-6.92 3.41 0 6.56.75 9.37 2.23 2.87 1.53 5.16 3.92 6.81 7.11 1.64 3.18 2.44 7.4 2.44 12.91v4.06H749.2c.28 3.2 1.31 5.89 3.09 8.02 2.04 2.45 4.84 3.64 8.57 3.64 2.59 0 4.43-.45 5.49-1.34 1.47-1.23 1.47-2.2 1.47-2.52v-2.21h10.45v2.21c0 2.22-.85 4.47-2.54 6.69-1.64 2.16-3.84 3.8-6.54 4.9-2.61 1.06-5.62 1.59-8.93 1.59Zm-.3-43.7c-5.22 0-9.36 1.86-12.65 5.67-3.31 3.84-4.99 8.77-4.99 14.65s1.58 10.59 4.71 14.31c3.08 3.68 7.41 5.46 13.22 5.46 2.85 0 5.4-.45 7.58-1.33 2.12-.86 3.77-2.08 5.02-3.74.82-1.07 1.36-2.12 1.62-3.13h-3.23c-.34 1.43-1.21 2.74-2.6 3.9-1.75 1.46-4.3 2.17-7.8 2.17-4.8 0-8.61-1.66-11.34-4.94-2.65-3.18-3.99-7.26-3.99-12.12v-1.8h29.45v-.46c0-4.85-.69-8.63-2.04-11.25-1.31-2.53-3.09-4.4-5.3-5.58-2.28-1.21-4.86-1.82-7.68-1.82Zm11.99 17.53h-26.31l.38-2.12c.74-4.11 2.37-7.37 4.84-9.69 2.52-2.39 5.32-3.59 8.33-3.59 2.47 0 4.68.51 6.57 1.52 1.95 1.05 3.5 2.67 4.6 4.82 1.06 2.08 1.6 4.24 1.6 6.43v2.63Zm-21.88-3.6h18.24c-.13-1.29-.51-2.55-1.16-3.82-.77-1.51-1.78-2.58-3.09-3.29-1.36-.73-3-1.1-4.87-1.1-2.08 0-4 .85-5.85 2.61-1.47 1.39-2.57 3.27-3.26 5.59ZM793.1 257.84h-6.92v-41.43h6.92v7.33c1.15-2.11 2.4-3.75 3.75-4.92s2.78-2.06 4.3-2.65c1.51-.59 3.06-.9 4.65-.9 1.43 0 2.66.2 3.7.6v7.15c-1.63-.75-3.36-1.13-5.19-1.13-2.58 0-5.1 1.13-7.54 3.4-2.45 2.26-3.67 6.3-3.67 12.1v20.45Z"/><path class="cls-2" d="M794.9 259.64h-10.52v-45.03h10.52v3.58c.25-.25.51-.5.77-.72 1.52-1.31 3.14-2.31 4.82-2.97 3.27-1.29 7.03-1.31 9.64-.3l1.16.44v11.21l-2.56-1.18c-3.32-1.53-7.07-1.46-10.74 1.95-2.05 1.9-3.09 5.52-3.09 10.78v22.25Zm-6.92-3.6h3.32v-18.65c0-3.78.48-6.85 1.47-9.28l-1.47 2.69v-12.59h-3.32v37.83Zm17.81-38.97c-1.35 0-2.69.26-3.99.77-1.3.51-2.57 1.3-3.78 2.34-1.18 1.03-2.31 2.52-3.35 4.42l-.49.9c.41-.56.86-1.08 1.36-1.53 2.77-2.57 5.72-3.88 8.76-3.88 1.16 0 2.28.13 3.38.4v-3.26c-.57-.11-1.21-.16-1.89-.16ZM841.45 247.18h6.92v.41c0 1.83-.69 3.69-2.08 5.58-1.4 1.89-3.22 3.33-5.49 4.32-2.26 1-4.99 1.49-8.16 1.49-6.12 0-10.83-1.93-14.13-5.78-3.3-3.86-4.95-9.22-4.95-16.1s1.65-12.13 4.95-16c3.3-3.88 8.01-5.82 14.13-5.82 3.18 0 5.9.5 8.16 1.49 2.27 1 4.09 2.37 5.49 4.12 1.39 1.75 2.08 3.68 2.08 5.79v.41h-6.92v-.41c.08-1.47-.59-2.78-2-3.94-1.41-1.15-3.57-1.73-6.47-1.73-3.46 0-6.36 1.27-8.7 3.82-2.35 2.54-3.52 6.63-3.52 12.28s1.17 9.8 3.52 12.34c2.34 2.55 5.24 3.81 8.7 3.81 2.9 0 5.04-.56 6.41-1.7 1.37-1.13 2.05-2.45 2.05-3.96v-.41Z"/><path class="cls-2" d="M832.63 260.78c-6.64 0-11.85-2.15-15.5-6.41-3.57-4.18-5.38-9.99-5.38-17.27s1.81-12.98 5.38-17.17c3.64-4.28 8.86-6.45 15.5-6.45 3.41 0 6.4.55 8.88 1.64 2.52 1.1 4.6 2.66 6.17 4.64 1.65 2.07 2.48 4.39 2.48 6.91v2.21h-10.52v-2.21c.03-.65-.07-1.51-1.34-2.54-1.07-.88-2.87-1.32-5.32-1.32-2.96 0-5.37 1.06-7.37 3.24-2.02 2.19-3.05 5.91-3.05 11.06s1.03 8.93 3.04 11.12c2 2.18 4.42 3.24 7.38 3.24 2.46 0 4.23-.43 5.26-1.29 1.26-1.04 1.4-1.97 1.4-2.57v-2.21h10.52v2.21c0 2.22-.82 4.45-2.44 6.64-1.58 2.14-3.67 3.78-6.21 4.9-2.48 1.09-5.47 1.64-8.89 1.64Zm0-43.7c-5.62 0-9.79 1.7-12.76 5.18-3 3.53-4.52 8.52-4.52 14.84s1.52 11.42 4.52 14.93c2.97 3.46 7.15 5.15 12.76 5.15 2.91 0 5.42-.45 7.44-1.34 1.99-.87 3.55-2.1 4.76-3.74.78-1.06 1.3-2.11 1.55-3.12h-3.29c-.33 1.49-1.19 2.84-2.55 3.96-1.72 1.42-4.19 2.11-7.56 2.11-3.98 0-7.35-1.48-10.03-4.39-2.65-2.87-4-7.43-4-13.56s1.34-10.63 4-13.5c2.68-2.92 6.05-4.4 10.02-4.4 3.31 0 5.87.72 7.6 2.14 1.61 1.32 2.3 2.73 2.55 3.95h3.3c-.22-1.16-.74-2.25-1.56-3.28-1.21-1.51-2.83-2.72-4.8-3.59-2.03-.89-4.53-1.34-7.44-1.34ZM884.07 247.18h6.85v.41c0 1.83-.72 3.7-2.18 5.61-1.45 1.9-3.37 3.34-5.78 4.32-2.4.97-5.15 1.46-8.26 1.46-6.32 0-11.19-2.03-14.61-6.11s-5.13-9.23-5.13-15.47 1.81-11.64 5.43-15.83c3.62-4.19 8.29-6.29 14.01-6.29 3.14 0 5.98.68 8.52 2.03 2.54 1.35 4.56 3.47 6.05 6.35 1.49 2.89 2.24 6.91 2.24 12.08V238h-29.45c0 4.45 1.19 8.11 3.58 10.97 2.38 2.86 5.7 4.29 9.95 4.29 3.02 0 5.24-.58 6.65-1.76 1.41-1.17 2.11-2.47 2.11-3.91v-.41Zm-21.82-14.37h22.36v-.83c0-1.91-.47-3.78-1.4-5.61-.93-1.82-2.21-3.18-3.84-4.05-1.63-.87-3.54-1.31-5.72-1.31-2.54 0-4.91 1.04-7.09 3.1-2.19 2.06-3.62 4.97-4.3 8.7Z"/><path class="cls-2" d="M874.72 260.78c-6.85 0-12.23-2.27-15.98-6.75-3.68-4.39-5.55-9.99-5.55-16.63s1.97-12.5 5.86-17c3.96-4.59 9.13-6.92 15.38-6.92 3.41 0 6.56.75 9.37 2.23 2.87 1.53 5.16 3.92 6.81 7.11 1.64 3.18 2.44 7.4 2.44 12.91v4.06h-29.38c.28 3.2 1.31 5.89 3.09 8.02 2.04 2.45 4.84 3.64 8.57 3.64 2.58 0 4.43-.45 5.5-1.34 1.47-1.22 1.47-2.2 1.47-2.52v-2.21h10.46v2.21c0 2.22-.86 4.48-2.54 6.69-1.63 2.15-3.83 3.8-6.53 4.9-2.61 1.06-5.62 1.59-8.93 1.59Zm-.3-43.7c-5.22 0-9.36 1.86-12.65 5.67-3.31 3.84-4.99 8.77-4.99 14.65s1.58 10.59 4.71 14.31c3.08 3.68 7.41 5.46 13.22 5.46 2.85 0 5.4-.45 7.58-1.33 2.12-.86 3.77-2.08 5.02-3.74.82-1.08 1.37-2.12 1.63-3.13h-3.23c-.34 1.43-1.21 2.74-2.6 3.9-1.75 1.46-4.3 2.17-7.8 2.17-4.8 0-8.61-1.66-11.34-4.94-2.65-3.18-3.99-7.26-3.99-12.12v-1.8h29.45v-.46c0-4.85-.69-8.63-2.04-11.25-1.31-2.53-3.09-4.4-5.3-5.58-2.28-1.21-4.86-1.82-7.68-1.82Zm11.99 17.53H860.1l.38-2.12c.74-4.11 2.37-7.37 4.84-9.69 2.52-2.38 5.32-3.59 8.32-3.59 2.47 0 4.68.51 6.57 1.52 1.95 1.05 3.5 2.67 4.6 4.82 1.06 2.09 1.6 4.25 1.6 6.43v2.63Zm-21.88-3.6h18.23c-.13-1.29-.52-2.57-1.16-3.82-.77-1.5-1.78-2.58-3.09-3.28-1.36-.73-3-1.1-4.87-1.1-2.08 0-4 .85-5.85 2.61-1.47 1.39-2.57 3.26-3.26 5.59Z"/></g></svg>