<?xml version="1.0" encoding="UTF-8"?>
<svg id="Camada_2" data-name="Camada 2" xmlns="http://www.w3.org/2000/svg" viewBox="0 0 807.35 280.09">
  <defs>
    <style>
      .cls-1 {
        fill: #fff;
      }

      .cls-2 {
        fill: #ff1700;
      }
    </style>
  </defs>
  <g id="Camada_4" data-name="Camada 4">
    <g>
      <g id="Camada_2-2" data-name="Camada 2">
        <g id="folha-5">
          <g>
            <path class="cls-2" d="m544.45,202.85c-4.05-2.37-10.11-3.52-18.52-3.52h-18.4v63.93l19.47-.03h.13c7.79,0,13.81-1.44,17.89-4.28,4.11-2.84,7.29-6.79,9.2-11.44,2.09-5.23,3.09-10.74,2.97-16.27.21-5.95-.93-11.98-3.28-17.46-1.95-4.56-5.21-8.34-9.47-10.95Zm.88,28.9c.13,4.21-.56,8.34-2.06,12.27-1.05,2.75-3.01,5.11-5.36,6.55-3.54,1.69-7.48,2.46-11.53,2.23h-7.19l-.12-43.58h7.15c4.14-.31,8.29.51,11.79,2.28,2.55,1.72,4.46,4.3,5.37,7.29,1.38,4.16,2.04,8.49,1.96,12.97Z"/>
            <path class="cls-2" d="m601.76,238.27c.23-4.6-.62-9.26-2.48-13.55-1.53-3.18-3.96-5.76-7.1-7.49-8.67-4.48-19.2-2.46-25.68,4.98-7.91,10.25-8.04,24.67-.25,35.18,3.86,4.49,9.56,7.08,15.33,7.08.39,0,.78-.01,1.17-.04,3.16.03,6.3-.5,9.28-1.64,2.7-1.06,5.05-2.85,6.73-5.08,1.64-1.95,2.61-4.44,2.72-7.07v-2.37h-11.69l.86,2.56c-.12.9-.61,1.72-1.33,2.23-1.64,1.14-3.62,1.66-5.62,1.51h-.13s-.13,0-.13,0c-3.36.16-6.66-1.22-8.78-3.74-1.9-2.42-3.02-5.35-3.26-8.39h30.37v-4.17Zm-29.47-5.02c.65-2.21,1.83-4.26,3.43-5.91,1.59-1.62,3.72-2.53,6.01-2.55,1.72-.04,3.45.35,4.91,1.1,1.39.79,2.48,1.97,3.21,3.46.63,1.21,1.03,2.54,1.18,3.9h-18.74Z"/>
            <rect class="cls-2" x="607.64" y="196.94" width="10.99" height="66.33"/>
            <rect class="cls-2" x="626.05" y="216.15" width="11.14" height="47.12"/>
            <rect class="cls-2" x="626.05" y="199.33" width="11.14" height="11.06"/>
            <polygon class="cls-2" points="675.86 216.25 663.14 246.93 650.75 216.25 638.78 216.25 657.78 263.24 667.59 263.39 687.11 216.25 675.86 216.25"/>
            <path class="cls-2" d="m727.98,238.27c.23-4.61-.62-9.27-2.5-13.56-1.53-3.17-3.97-5.76-7.1-7.49-8.67-4.48-19.2-2.47-25.68,4.98-7.89,10.22-8.07,24.64-.35,35.18,3.87,4.49,9.59,7.08,15.36,7.08.39,0,.77-.01,1.16-.03,3.22.05,6.29-.49,9.25-1.64,2.71-1.06,5.07-2.84,6.77-5.1,1.62-1.96,2.57-4.44,2.68-7.06v-2.37h-11.56l.71,2.49c-.11.91-.6,1.75-1.34,2.28-1.63,1.14-3.6,1.69-5.84,1.53-3.3.21-6.58-1.25-8.67-3.74-1.9-2.42-3.02-5.35-3.26-8.39h30.37v-4.17Zm-29.47-5.02c.64-2.21,1.82-4.26,3.42-5.89,1.6-1.57,3.72-2.44,6.01-2.44,1.74-.04,3.44.35,4.91,1.11,1.39.79,2.5,1.96,3.2,3.42.59,1.19.96,2.49,1.1,3.8h-18.65Z"/>
            <path class="cls-2" d="m796.02,216.25l-12.29,29.21-13.04-29.21h-8.9v-.18l-1.27-.46c-1.46-.53-3.02-.77-4.49-.74-1.9,0-3.76.37-5.56,1.09-1.82.76-3.49,1.81-5,3.16-.22.2-.42.41-.63.62v-3.49h-10.99v47.01h10.99l-.03-23.35c.02-5.48,1.09-9.26,3.27-11.33,1.7-1.8,4-2.84,6.41-2.94h.03c1.55,0,3.12.34,4.52.99l2.74,1.27v-4.65l16.14,36.22-.41.97c-.93,2.55-2.17,4.98-3.6,7.08-.76.92-1.75,1.61-2.84,2.01-1.46.5-2.98.75-4.58.7h-5.99v9.84h7.21c.27,0,.53.01.79.01,2.48,0,4.92-.44,7.35-1.35,2.3-1.02,4.35-2.6,5.99-4.65,2.66-3.71,4.79-7.77,6.3-11.96l19.18-45.88h-11.33Z"/>
          </g>
        </g>
      </g>
      <g id="Grupo_2157" data-name="Grupo 2157">
        <g id="Grupo_2146" data-name="Grupo 2146">
          <path class="cls-1" d="m406.86,0h-60.34l-49.08,77.83L251.35,0h-62.74l.11.18h-47.98v149.91c0,33.58-3.38,44.17-4.83,47.16-2.55,5.5-7.01,9.88-12.55,12.34-7.37,3.2-15.34,4.77-23.37,4.62-8.74.14-17.43-1.48-25.54-4.75-5.86-2.17-10.82-6.25-14.09-11.58-1.43-2.46-4.75-11.02-4.75-37.27V.18H0v164.48c0,28.15,3.98,48.06,12.17,60.89,8.89,13.46,22.08,23.51,37.41,28.53,16.12,5.62,33.09,8.41,50.16,8.25,17.52.54,34.91-3.19,50.67-10.87,13.47-6.89,24.69-17.49,32.33-30.55,7.51-12.95,11.17-33.54,11.17-62.94V8.96l71.11,120.28-83.12,133.28h60.76l51.99-83.83,49.66,83.83h62.23l-79.74-135.35L406.86,0Z"/>
        </g>
      </g>
      <g id="Camada_2-3" data-name="Camada 2">
        <g id="folha-5-2" data-name="folha-5">
          <rect class="cls-2" x="424.02" y="196.73" width="65.29" height="65.74"/>
        </g>
      </g>
    </g>
  </g>
</svg>