<svg id="Camada_2" data-name="Camada 2" xmlns="http://www.w3.org/2000/svg" viewBox="0 0 807.35 280.09"><defs><style>.cls-2{fill:#ff1700}</style></defs><g id="Camada_4" data-name="Camada 4"><g id="Camada_2-2" data-name="Camada 2"><g id="folha-5"><path class="cls-2" d="M544.45 202.85c-4.05-2.37-10.11-3.52-18.52-3.52h-18.4v63.93l19.47-.03h.13c7.79 0 13.81-1.44 17.89-4.28 4.11-2.84 7.29-6.79 9.2-11.44a41.342 41.342 0 0 0 2.97-16.27c.21-5.95-.93-11.98-3.28-17.46a23.678 23.678 0 0 0-9.47-10.95Zm.88 28.9c.13 4.21-.56 8.34-2.06 12.27-1.05 2.75-3.01 5.11-5.36 6.55-3.54 1.69-7.48 2.46-11.53 2.23h-7.19l-.12-43.58h7.15c4.14-.31 8.29.51 11.79 2.28 2.55 1.72 4.46 4.3 5.37 7.29 1.38 4.16 2.04 8.49 1.96 12.97ZM601.76 238.27c.23-4.6-.62-9.26-2.48-13.55a16.797 16.797 0 0 0-7.1-7.49c-8.67-4.48-19.2-2.46-25.68 4.98-7.91 10.25-8.04 24.67-.25 35.18 3.86 4.49 9.56 7.08 15.33 7.08.39 0 .78-.01 1.17-.04 3.16.03 6.3-.5 9.28-1.64 2.7-1.06 5.05-2.85 6.73-5.08 1.64-1.95 2.61-4.44 2.72-7.07v-2.37h-11.69l.86 2.56c-.12.9-.61 1.72-1.33 2.23a8.68 8.68 0 0 1-5.62 1.51h-.26c-3.36.16-6.66-1.22-8.78-3.74-1.9-2.42-3.02-5.35-3.26-8.39h30.37v-4.17Zm-29.47-5.02a14.32 14.32 0 0 1 3.43-5.91 8.463 8.463 0 0 1 6.01-2.55c1.72-.04 3.45.35 4.91 1.1 1.39.79 2.48 1.97 3.21 3.46a11.1 11.1 0 0 1 1.18 3.9h-18.74ZM607.64 196.94h10.99v66.33h-10.99zM626.05 216.15h11.14v47.12h-11.14zM626.05 199.33h11.14v11.06h-11.14zM675.86 216.25l-12.72 30.68-12.39-30.68h-11.97l19 46.99 9.81.15 19.52-47.14h-11.25zM727.98 238.27c.23-4.61-.62-9.27-2.5-13.56a16.902 16.902 0 0 0-7.1-7.49c-8.67-4.48-19.2-2.47-25.68 4.98-7.89 10.22-8.07 24.64-.35 35.18 3.87 4.49 9.59 7.08 15.36 7.08.39 0 .77-.01 1.16-.03 3.22.05 6.29-.49 9.25-1.64 2.71-1.06 5.07-2.84 6.77-5.1 1.62-1.96 2.57-4.44 2.68-7.06v-2.37h-11.56l.71 2.49c-.11.91-.6 1.75-1.34 2.28-1.63 1.14-3.6 1.69-5.84 1.53-3.3.21-6.58-1.25-8.67-3.74-1.9-2.42-3.02-5.35-3.26-8.39h30.37v-4.17Zm-29.47-5.02c.64-2.21 1.82-4.26 3.42-5.89 1.6-1.57 3.72-2.44 6.01-2.44 1.74-.04 3.44.35 4.91 1.11 1.39.79 2.5 1.96 3.2 3.42.59 1.19.96 2.49 1.1 3.8H698.5ZM796.02 216.25l-12.29 29.21-13.04-29.21h-8.9v-.18l-1.27-.46c-1.46-.53-3.02-.77-4.49-.74-1.9 0-3.76.37-5.56 1.09-1.82.76-3.49 1.81-5 3.16-.22.2-.42.41-.63.62v-3.49h-10.99v47.01h10.99l-.03-23.35c.02-5.48 1.09-9.26 3.27-11.33 1.7-1.8 4-2.84 6.41-2.94h.03c1.55 0 3.12.34 4.52.99l2.74 1.27v-4.65l16.14 36.22-.41.97c-.93 2.55-2.17 4.98-3.6 7.08-.76.92-1.75 1.61-2.84 2.01-1.46.5-2.98.75-4.58.7h-5.99v9.84h7.21c.27 0 .53.01.79.01 2.48 0 4.92-.44 7.35-1.35 2.3-1.02 4.35-2.6 5.99-4.65 2.66-3.71 4.79-7.77 6.3-11.96l19.18-45.88h-11.33Z"/></g></g><g id="Grupo_2157" data-name="Grupo 2157"><path d="M406.86 0h-60.34l-49.08 77.83L251.35 0h-62.74l.11.18h-47.98v149.91c0 33.58-3.38 44.17-4.83 47.16-2.55 5.5-7.01 9.88-12.55 12.34a56.043 56.043 0 0 1-23.37 4.62 65.52 65.52 0 0 1-25.54-4.75 27.903 27.903 0 0 1-14.09-11.58c-1.43-2.46-4.75-11.02-4.75-37.27V.18H0v164.48c0 28.15 3.98 48.06 12.17 60.89a71.49 71.49 0 0 0 37.41 28.53 148.15 148.15 0 0 0 50.16 8.25c17.52.54 34.91-3.19 50.67-10.87a79.285 79.285 0 0 0 32.33-30.55c7.51-12.95 11.17-33.54 11.17-62.94V8.96l71.11 120.28-83.12 133.28h60.76l51.99-83.83 49.66 83.83h62.23L326.8 127.17 406.86 0Z" style="fill:#fff" id="Grupo_2146" data-name="Grupo 2146"/></g><g id="Camada_2-3" data-name="Camada 2"><path class="cls-2" d="M424.02 196.73h65.29v65.74h-65.29z" id="folha-5-2" data-name="folha-5"/></g></g></svg>