<svg id="Camada_2" data-name="Camada 2" xmlns="http://www.w3.org/2000/svg" viewBox="0 0 646.4 273.12"><defs><style>.cls-1{fill:#01e993}</style></defs><g id="Camada_4" data-name="Camada 4"><g id="Camada_1-2" data-name="Camada 1-2"><g id="Camada_2-2" data-name="Camada 2-2"><g id="folha-5"><path d="M408.37 0h-60.56l-49.37 78.12L252.28 0h-62.96l.11.17h-48.08v150.47c0 33.78-3.48 44.34-4.97 47.31l-.14.29c-2.54 5.4-6.94 9.74-12.25 12.13-7.31 3.23-15.5 4.83-23.44 4.71h-.4c-8.85.09-17.42-1.51-25.81-4.91-5.77-2.23-10.71-6.37-13.79-11.48-1.43-2.48-4.77-11.08-4.77-37.4V.17H0v165.08c-.03 28.35 3.94 48.39 12.13 61.27 8.31 13.02 20.93 22.67 37.69 28.69a147.28 147.28 0 0 0 48.59 8.25h1.63c20.07 0 37.2-3.68 50.85-10.85 13.56-7 24.78-17.67 32.41-30.84 7.62-13.05 11.31-33.69 11.31-63.1V8.97l71.41 120.86-83.46 133.68h61.01l52.19-84.14 49.88 84.08h62.41L327.96 127.6 408.37 0Z" style="fill:#fff"/><path class="cls-1" d="M426.36 197.57h65.47v65.92h-65.47z"/></g></g><path class="cls-1" d="M546.13 193.06c-2.91-1.48-7.62-2.23-14.36-2.23h-18.73v66.35h11.93v-24.53h5.37c8.05 0 14.28-2.2 18.47-6.54 4.2-4.34 6.31-9.76 6.31-16.16 0-3.77-.74-7.14-2.2-10.05-1.51-3-3.8-5.31-6.8-6.85Zm-3.17 16.93c0 3.28-.91 6.02-2.83 8.37-1.74 2.14-5.88 3.28-11.96 3.28h-3.2v-20.53h6.97c5.68 0 7.97 1.26 8.88 2.31 1.43 1.63 2.11 3.77 2.11 6.57h.03ZM595.92 246.71c-.09-2.03-.11-3.97-.11-5.82v-17.07c0-5.11-.71-8.62-2.17-10.68-1.43-2-3.63-3.63-6.57-4.77-5.57-2.2-12.96-2.23-18.76.06-3 1.2-5.45 2.97-7.28 5.34-1.88 2.43-2.86 4.88-2.86 7.28v2.71h11.93v-2.71c0-.74.17-1.86 1.71-3.08 1.28-1.03 3.2-1.54 5.68-1.54 2.08 0 3.85.46 5.28 1.34.71.46 1.68 1.34 1.68 3.94v3.23l-2.17.43c-8.82 1.74-14.9 3.8-18.62 6.28-4.05 2.68-6.08 6.6-6.08 11.56 0 4.37 1.48 7.85 4.4 10.39 2.83 2.46 6.22 3.71 10.11 3.71 2.31 0 4.71-.46 7.14-1.4 1.74-.66 3.63-1.88 5.77-3.68.17.77.4 1.6.66 2.43l.46 1.46h11.85l-.8-2.66c-.77-2.57-1.2-4.8-1.28-6.68l.03-.06Zm-24.07.26c-.8-.37-1.37-.86-1.77-1.51-.4-.66-.6-1.4-.6-2.2 0-1.6.74-2.94 2.26-4.17 1.2-.97 4.4-2.54 12.73-4.65v1.68c0 2.31-.46 4.31-1.37 6.02-.91 1.68-2.14 3-3.77 4-2.46 1.48-4.85 2.08-7.48.83ZM634.78 207.94l-12.19 29.44-13.02-29.44h-12.45l19.41 44.14-.4.91c-1.94 4.71-3.06 6.54-3.63 7.25-.77.91-1.68 1.57-2.86 1.97-1.26.46-2.77.69-4.48.69h-6.17v10.22h7.45c3.37 0 6.02-.43 8.14-1.34 2.14-.91 4.14-2.46 6-4.65 1.8-2.11 3.91-6.17 6.48-12.31l19.33-46.88h-11.65.03Z"/></g></g></svg>