<svg id="Camada_2" data-name="Camada 2" xmlns="http://www.w3.org/2000/svg" viewBox="0 0 844 264.75"><defs><style>.cls-1{fill:#0074ff}</style></defs><g id="Camada_4" data-name="Camada 4"><g id="Camada_2-2" data-name="Camada 2"><g id="folha-5"><path class="cls-1" d="m537.11 227.45-3.55-1.54a68.074 68.074 0 0 1-7.3-3.65 8.623 8.623 0 0 1-2.86-2.9 6.954 6.954 0 0 1-.98-3.6c-.01-1.91.72-3.72 2.01-5.04 1.83-1.74 4.33-2.61 7-2.42 1.52.03 3.02.18 4.57.61.94.21 1.78.7 2.42 1.43.41.46.65 1.06.67 1.61v2.27h11.33v-2.23c.08-3.68-1.46-7.18-4.19-9.6-2.87-2.63-7.49-3.92-14.11-3.92-7.13.02-12.5 1.75-15.92 5.11-3.46 3.29-5.39 7.92-5.28 12.64-.03 2.64.55 5.3 1.71 7.74 1.24 2.44 2.95 4.54 5.12 6.27a40.23 40.23 0 0 0 9.65 5.46l3.14 1.31c2.92 1.07 5.66 2.56 8.06 4.37 1.45 1.2 2.25 2.97 2.21 4.98.11 2.41-.87 4.71-2.67 6.28a10.309 10.309 0 0 1-7.16 2.46c-2.83.13-5.63-.46-8.03-1.66-1.73-1.03-2.72-2.98-2.51-5.16V246h-11.36v2.24c0 3.14.88 6.19 2.55 8.82 1.77 2.84 4.49 4.98 7.67 6.02 3.73 1.21 7.64 1.76 11.39 1.66.38.02.75.03 1.13.03 3.69 0 7.39-.8 10.81-2.37a17.17 17.17 0 0 0 7.25-7.02c1.66-2.9 2.55-6.19 2.57-9.54 0-3.56-1.07-6.98-3.23-10.05-3.29-3.79-7.53-6.68-12.14-8.31ZM561.46 221.85c-4.25 4.05-6.4 10.13-6.4 18.08s2.15 14.02 6.37 18.1c3.96 3.94 9.41 6.18 14.99 6.18h.68c5.58 0 11.03-2.24 14.97-6.16 4.23-4.08 6.37-10.18 6.37-18.12s-2.14-13.93-6.37-18.07a22.07 22.07 0 0 0-30.61 0Zm7.76 7.28c.55-.74 1.2-1.39 1.95-1.95a9.373 9.373 0 0 1 7.02-1.76c2.5.37 4.7 1.69 6.12 3.58 4.2 6.76 4.2 15.15.06 21.81a8.856 8.856 0 0 1-7.55 3.73h-.12c-2.96-.01-5.75-1.33-7.41-3.63-4.16-6.76-4.16-15.16-.09-21.78ZM603.62 198.01h10.81v65.03h-10.81zM648.48 239.62c.13 2.86-.38 5.78-1.46 8.35a11.14 11.14 0 0 1-3.77 4.45 8.483 8.483 0 0 1-4.87 1.51c-1.64.05-3.4-.5-4.74-1.54-.41-.32-1.73-1.98-1.73-9.74v-25.82H621.1v28.95c.02 7.33 1.56 12.16 4.75 14.79 3.02 2.44 6.8 3.76 10.61 3.76h.47c1.9.07 3.74-.31 5.55-1 1.76-.71 3.39-1.69 4.89-2.94.38-.34.76-.69 1.11-1.05v3.69h10.76v-46.19h-10.76v22.78ZM687.54 254.59c-1.2.04-2.4-.24-3.38-.77-.83-.5-1.47-1.28-1.76-2.09a22.21 22.21 0 0 1-.79-7.3v-17.87h12.24v-9.72h-12.24v-10.01h-10.66v10.01h-7.24v9.72h7.25v19.76c-.22 3.57.39 7.2 1.85 10.62 1.2 2.36 3.08 4.25 5.47 5.48 2.39 1.17 5.04 1.78 7.76 1.78h.23c2.77-.13 5.53-.56 8.22-1.29l1.41-.38v-10.08l-2.55.92a21.44 21.44 0 0 1-5.81 1.22ZM700.53 200.38h10.81v10.87h-10.81zM700.53 216.82h10.81v46.22h-10.81zM722.95 221.85c-4.23 4.03-6.37 10.11-6.37 18.08s2.14 14.04 6.35 18.1c3.97 3.94 9.43 6.18 15.02 6.18h.64c5.59 0 11.05-2.24 15-6.16 4.23-4.08 6.37-10.18 6.37-18.12s-2.14-13.93-6.37-18.07a22.095 22.095 0 0 0-30.63 0Zm7.79 7.28c.55-.74 1.2-1.39 1.95-1.95a9.373 9.373 0 0 1 7.02-1.76c2.5.37 4.7 1.69 6.12 3.58 4.2 6.76 4.2 15.15.07 21.81-1.74 2.45-4.6 3.8-7.58 3.74h-.12c-2.95-.03-5.74-1.33-7.38-3.64-4.2-6.76-4.2-15.15-.09-21.78ZM801.26 223.17c-1.21-2.46-3.12-4.48-5.6-5.86-2.46-1.24-5.21-1.91-7.91-1.82-1.97-.08-3.88.3-5.78.99-1.77.7-3.41 1.69-4.88 2.95-.4.35-.79.72-1.16 1.1v-3.69h-10.79v46.19h10.79l-.09-22.74c-.15-2.88.38-5.8 1.51-8.39.85-1.79 2.16-3.33 3.81-4.45a8.483 8.483 0 0 1 4.8-1.49h.04c1.28 0 2.54.36 3.66 1.06 1 .6 1.76 1.55 2.07 2.52.57 2.46.81 5 .7 7.62v25.87h10.76v-28.71c.25-3.77-.41-7.6-1.94-11.15ZM842.98 242.84c-.7-1.61-1.8-3.01-3.24-4.1a18.6 18.6 0 0 0-3.01-1.76c-2.14-.86-4.36-1.58-6.51-2.11l-5.91-1.76c-1.52-.35-2.95-.98-4.1-1.79-.5-.42-.78-1.05-.75-1.77 0-1.11.54-2.16 1.38-2.78 1.54-1.04 3.42-1.54 5.48-1.42 1.63-.09 3.22.26 4.68 1.01.63.31 1.04.96 1.04 1.66v1.9h10.9l-.04-1.94c-.06-3.27-1.5-6.4-3.88-8.52-2.59-2.53-6.64-3.77-12.24-3.77h-.04c-4.84-.38-9.53 1.13-13.3 4.24a13.63 13.63 0 0 0-4.67 10.21c0 5.63 3.2 9.67 9.59 12.05l10.79 3.36c3.88 1.22 3.88 3.05 3.88 3.7a4.43 4.43 0 0 1-1.84 3.51c-1.67 1.23-3.74 1.87-5.81 1.76h-.26c-2.03.19-4.04-.34-5.57-1.38-.91-.75-1.42-1.86-1.39-3.24V248h-8.86l-2.21.16.34 2.05c0 2.62.84 5.22 2.42 7.35 1.6 2.12 3.73 3.82 6.21 4.91 2.99 1.23 6.14 1.8 9.19 1.7.45.03.9.05 1.34.05 4.56 0 8.94-1.61 12.5-4.64 3.2-2.95 4.99-7.14 4.91-11.41a12.7 12.7 0 0 0-1.02-5.36Z"/></g></g><g id="Grupo_2157" data-name="Grupo 2157"><path d="M406.86 0h-60.34l-49.08 77.83L251.35 0h-62.74l.11.18h-47.98v149.91c0 33.58-3.38 44.17-4.83 47.16-2.55 5.5-7.01 9.88-12.55 12.34a56.043 56.043 0 0 1-23.37 4.62 65.52 65.52 0 0 1-25.54-4.75 27.903 27.903 0 0 1-14.09-11.58c-1.43-2.46-4.75-11.02-4.75-37.27V.18H0v164.48c0 28.15 3.98 48.06 12.17 60.89a71.49 71.49 0 0 0 37.41 28.53 148.15 148.15 0 0 0 50.16 8.25c17.52.54 34.91-3.19 50.67-10.87a79.285 79.285 0 0 0 32.33-30.55c7.51-12.95 11.17-33.54 11.17-62.94V8.96l71.11 120.28-83.12 133.28h60.76l51.99-83.83 49.66 83.83h62.23L326.8 127.17 406.86 0Z" style="fill:#fff" id="Grupo_2146" data-name="Grupo 2146"/></g><g id="Camada_2-3" data-name="Camada 2"><path class="cls-1" d="M424.02 196.73h65.29v65.74h-65.29z" id="folha-5-2" data-name="folha-5"/></g></g></svg>