<?xml version="1.0" encoding="utf-8"?>
<!-- Generator: Adobe Illustrator 27.0.1, SVG Export Plug-In . SVG Version: 6.00 Build 0)  -->
<svg version="1.1" id="Camada_1" xmlns="http://www.w3.org/2000/svg" xmlns:xlink="http://www.w3.org/1999/xlink" x="0px" y="0px"
	 viewBox="0 0 185.8 99.3" style="enable-background:new 0 0 185.8 99.3;" xml:space="preserve">
<style type="text/css">
	.st0{fill:#FFFFFF;}
</style>
<g id="Camada_2_00000075123272337514030280000016075691759027833238_">
	<g id="Camada_1-2">
		<g id="folha-5">
			<g>
				<path class="st0" d="M4.7,4.8h11.6v56c0,8.2,0.8,13.7,2.4,16.5c1.7,2.9,4.4,5.2,7.6,6.4c3.6,1.5,7.6,2.2,11.5,2.2
					c3.7,0.1,7.4-0.7,10.8-2.2c3.1-1.4,5.6-3.8,7-6.9c1.6-3.2,2.4-9.8,2.4-20v-52h10.6v55c0,10.1-1.2,17.3-3.6,21.4
					c-2.4,4.2-6,7.6-10.3,9.8c-4.5,2.4-10.2,3.6-17,3.6c-5.9,0.1-11.8-0.9-17.4-2.8c-5.3-1.9-9.2-4.9-11.8-8.9S4.7,72,4.7,62.3V4.8z
					"/>
				<path class="st0" d="M37,99.3c-6.2,0-12.4-1-18.3-3.1c-6.3-2.3-11.1-5.9-14.2-10.8C1.5,80.5,0,73,0,62.3V0.1h21v60.7
					c0,9.9,1.3,13.2,1.8,14.1c1.2,1.9,3,3.5,5.2,4.3l0.1,0c3.1,1.3,6.3,1.9,9.6,1.8l0.1,0l0.1,0c3,0.1,6.1-0.6,8.8-1.8
					c2-0.9,3.7-2.5,4.6-4.6l0.1-0.1c0.6-1.1,1.9-5.1,1.9-17.8V0.1h20.1v59.7c0,11.1-1.4,18.9-4.3,23.8c-2.9,5-7.1,9-12.2,11.6
					c-5.2,2.7-11.6,4.1-19.2,4.1C37.5,99.3,37.3,99.3,37,99.3z M9.5,9.5v52.8c0,10.9,1.7,15.8,3.1,18c2,3.1,5.1,5.4,9.4,7
					c1.1,0.4,2.3,0.7,3.5,1.1c-0.3-0.1-0.5-0.2-0.8-0.3c-4.1-1.6-7.6-4.5-9.9-8.3c-2.1-3.6-3.1-9.6-3.1-18.9V9.5H9.5z M59.9,78.8
					c-1.4,3-3.5,5.5-6.2,7.4c3-1.8,5.5-4.3,7.2-7.3c1.4-2.3,3-7.5,3-19V9.5h-1.2v47.2C62.7,71.3,61.1,76.3,59.9,78.8z"/>
			</g>
			<g>
				<path class="st0" d="M89.1,94.5H77.4L105.9,49L79.8,4.8h12.6l20,33.8l21.4-33.8h11.5L118,48l27.4,46.5H133l-21.4-36.1L89.1,94.5
					z"/>
				<path class="st0" d="M91.8,99.3h-23l31.4-50.4L71.3,0h23.7l17.4,29.4L131.1,0h22.8l-30.3,48.1l30.2,51.2h-23.5l-18.8-31.7
					L91.8,99.3z M86.1,89.7h0.4l25.2-40.6l24.1,40.6h1.3l-24.6-41.8l24.1-38.3h-0.2l-24.2,38.2L89.6,9.6h-1.5l23.3,39.5L86.1,89.7z"
					/>
			</g>
			<g>
				<path class="st0" d="M181,94.5h-15.1V79.3H181V94.5z"/>
				<path class="st0" d="M185.8,99.3h-24.7V74.5h24.7V99.3z M170.7,89.7h5.5v-5.7h-5.5V89.7z"/>
			</g>
		</g>
	</g>
</g>
</svg>
