<svg xmlns="http://www.w3.org/2000/svg" width="30" height="30" viewBox="0 0 30 30">
  <g id="Grupo_257" data-name="Grupo 257" transform="translate(6552 -17789.001)">
    <rect id="Retângulo_107" data-name="Retângulo 107" width="30" height="30" transform="translate(-6552 17789)" fill="#fff"/>
    <path id="Icon_awesome-youtube" data-name="Icon awesome-youtube" d="M17.789,6.381A2.148,2.148,0,0,0,16.278,4.86,50.766,50.766,0,0,0,9.6,4.5a50.767,50.767,0,0,0-6.679.36A2.148,2.148,0,0,0,1.407,6.381a22.535,22.535,0,0,0-.357,4.142,22.535,22.535,0,0,0,.357,4.142,2.116,2.116,0,0,0,1.512,1.5,50.767,50.767,0,0,0,6.679.36,50.767,50.767,0,0,0,6.679-.36,2.116,2.116,0,0,0,1.512-1.5,22.535,22.535,0,0,0,.357-4.142,22.535,22.535,0,0,0-.357-4.142ZM7.85,13.065V7.981l4.468,2.542L7.85,13.065Z" transform="translate(-6546.598 17793.488)"/>
  </g>
</svg>
