<svg xmlns="http://www.w3.org/2000/svg" width="30" height="30"><g data-name="Grupo 256"><path fill="#fff" d="M0-.001h30v30H0z" data-name="Retângulo 106"/><path d="M15.003 10.384a4.615 4.615 0 1 0 4.615 4.615 4.608 4.608 0 0 0-4.615-4.615Zm0 7.615a3 3 0 1 1 3-3 3.006 3.006 0 0 1-3 3Zm5.88-7.8a1.076 1.076 0 1 1-1.08-1.08 1.074 1.074 0 0 1 1.079 1.076Zm3.057 1.092a5.327 5.327 0 0 0-1.454-3.772 5.362 5.362 0 0 0-3.773-1.458c-1.486-.084-5.94-.084-7.427 0a5.354 5.354 0 0 0-3.772 1.45 5.344 5.344 0 0 0-1.453 3.772c-.084 1.486-.084 5.94 0 7.427a5.327 5.327 0 0 0 1.454 3.771 5.369 5.369 0 0 0 3.772 1.454c1.486.084 5.94.084 7.427 0a5.327 5.327 0 0 0 3.772-1.454 5.362 5.362 0 0 0 1.454-3.772c.084-1.486.084-5.936 0-7.423Zm-1.92 9.017a3.038 3.038 0 0 1-1.717 1.708c-1.185.47-4 .361-5.306.361s-4.125.1-5.306-.361a3.038 3.038 0 0 1-1.711-1.711c-.47-1.185-.361-4-.361-5.306s-.1-4.125.361-5.306a3.038 3.038 0 0 1 1.716-1.711c1.185-.47 4-.361 5.306-.361s4.125-.1 5.306.361a3.038 3.038 0 0 1 1.711 1.711c.47 1.185.361 4 .361 5.306s.109 4.125-.361 5.306Z" data-name="Icon awesome-instagram"/></g></svg>