<svg xmlns="http://www.w3.org/2000/svg" width="30" height="30"><g data-name="Grupo 257"><path fill="#fff" d="M0-.001h30v30H0z" data-name="Retângulo 107"/><path d="M23.191 10.868a2.148 2.148 0 0 0-1.511-1.521 50.766 50.766 0 0 0-6.678-.36 50.767 50.767 0 0 0-6.679.36 2.148 2.148 0 0 0-1.514 1.521 22.535 22.535 0 0 0-.357 4.142 22.535 22.535 0 0 0 .357 4.142 2.116 2.116 0 0 0 1.512 1.5 50.767 50.767 0 0 0 6.679.36 50.767 50.767 0 0 0 6.679-.36 2.116 2.116 0 0 0 1.512-1.5 22.535 22.535 0 0 0 .357-4.142 22.535 22.535 0 0 0-.357-4.142Zm-9.939 6.684v-5.084l4.468 2.542-4.468 2.542Z" data-name="Icon awesome-youtube"/></g></svg>