<svg xmlns="http://www.w3.org/2000/svg" width="30" height="30"><g data-name="Grupo 255"><path fill="#fff" d="M0-.001h30v30H0z" data-name="Retângulo 105"/><path d="M10.029 23.999H6.3V11.982h3.729ZM8.161 10.343a2.172 2.172 0 1 1 2.162-2.182 2.179 2.179 0 0 1-2.162 2.182ZM24 23.999h-3.727v-5.85c0-1.394-.028-3.182-1.94-3.182-1.94 0-2.238 1.515-2.238 3.082v5.95h-3.728V11.982h3.579v1.639H16a3.921 3.921 0 0 1 3.531-1.941c3.775.001 4.469 2.488 4.469 5.719v6.6Z" data-name="Icon awesome-linkedin-in"/></g></svg>